<svg xmlns="http://www.w3.org/2000/svg" xmlns:xlink="http://www.w3.org/1999/xlink" fill="none" version="1.1" width="36" height="36" viewBox="0 0 36 36"><defs><clipPath id="master_svg0_850_63490"><rect x="0" y="0" width="36" height="36" rx="0"/></clipPath></defs><g clip-path="url(#master_svg0_850_63490)"><g><path d="M27,24L27,16L25,16L25,24L17,24L17,26L25,26L25,34L27,34L27,26L35,26L35,24L27,24Z" fill-rule="evenodd" fill="#6E20D1" fill-opacity="1"/></g><g><path d="M4.0666666,4L4.0666666,2L2,2L2,4.0666656L4,4.0666656L4,4L4.0666666,4ZM10.2666664,2L6.1333332,2L6.1333332,4L10.2666664,4L10.2666664,2ZM16.466666,2L12.333333,2L12.333333,4L16.466666,4L16.466666,2ZM22.666666,2L18.533333,2L18.533333,4L22.666666,4L22.666666,2ZM28.866667,2L24.733334,2L24.733334,4L28.866667,4L28.866667,2ZM33,2L30.933334,2L30.933334,4L31,4L31,4.0666666L33,4.0666666L33,2ZM2,6.1333332L2,10.2666664L4,10.2666664L4,6.1333332L2,6.1333332ZM33,10.2666664L33,6.1333332L31,6.1333332L31,10.2666664L33,10.2666664ZM33,14L33,12.333333L31,12.333333L31,14L33,14ZM14,31L14,33L12.333334,33L12.333334,31L14,31ZM2,12.333334L2,16.466667L4,16.466667L4,12.333334L2,12.333334ZM2,18.533333L2,22.666668L4,22.666668L4,18.533333L2,18.533333ZM2,24.733334L2,28.866667L4,28.866667L4,24.733334L2,24.733334ZM2,33L4.0666656,33L4.0666656,31L4,31L4,30.933334L2,30.933334L2,33ZM6.1333332,33L10.2666664,33L10.2666664,31L6.1333332,31L6.1333332,33Z" fill-rule="evenodd" fill="#6E20D1" fill-opacity="1"/></g></g></svg>