<svg xmlns="http://www.w3.org/2000/svg" xmlns:xlink="http://www.w3.org/1999/xlink" fill="none" version="1.1" width="36" height="36" viewBox="0 0 36 36"><defs><clipPath id="master_svg0_850_63468"><rect x="0" y="0" width="36" height="36" rx="0"/></clipPath></defs><g clip-path="url(#master_svg0_850_63468)"><g><path d="M34,18Q34,18.392776,33.980726000000004,18.785082Q33.961454,19.177387,33.922956,19.568274Q33.884457,19.95916,33.826824,20.347685Q33.769189999999995,20.736212,33.692561999999995,21.121443Q33.615933999999996,21.506674,33.520496,21.88768Q33.42506,22.268688,33.311043,22.644554Q33.197025,23.020416,33.064701,23.390234Q32.932377,23.760052,32.782067999999995,24.122932Q32.63176,24.485809,32.463825,24.840878Q32.295891,25.195946,32.110737,25.542345Q31.925583,25.888744,31.723654,26.225639Q31.521725,26.562534,31.303509,26.889118Q31.085293,27.215702,30.851316,27.531185Q30.61734,27.846668,30.368164,28.150291Q30.118988,28.453911,29.855215,28.74494Q29.591442,29.035969,29.313705,29.313705Q29.035969,29.591442,28.744942,29.855215Q28.453911,30.118988,28.150291,30.368164Q27.846668,30.61734,27.531185,30.851316Q27.215702,31.085293,26.889118,31.303509Q26.562534,31.521725,26.225639,31.723654Q25.888744,31.925583,25.542347,32.110738999999995Q25.195946,32.295891,24.840878,32.463826999999995Q24.485809,32.63176,24.122932,32.782070000000004Q23.760052,32.932381,23.390236,33.064703Q23.020416,33.197025,22.644554,33.311045Q22.268688,33.42506,21.88768,33.520498Q21.506674,33.615936000000005,21.121443,33.692561999999995Q20.736212,33.769189999999995,20.347687,33.826822Q19.95916,33.884457,19.568275,33.922956Q19.177387,33.961454,18.785082,33.980728Q18.392776,34,18,34Q17.607222,34,17.214917,33.980726000000004Q16.822613,33.961454,16.431725999999998,33.922956Q16.040838,33.884457,15.652311,33.826824Q15.263784,33.769189999999995,14.878554,33.692561999999995Q14.493323,33.615933999999996,14.112316,33.520496Q13.73131,33.42506,13.355445,33.311043Q12.979579,33.197025,12.609761,33.064701Q12.239943,32.932377,11.8770638,32.782067999999995Q11.514184,32.63176,11.1591167,32.463825Q10.8040504,32.295891,10.4576511,32.110737Q10.1112518,31.925583,9.774355400000001,31.723654Q9.4374585,31.521725,9.1108756,31.303509Q8.7842927,31.085293,8.468810999999999,30.851316Q8.1533289,30.61734,7.8497076,30.368164Q7.5460863,30.118988,7.2550569,29.855215Q6.9640274,29.591442,6.6862912,29.313705Q6.408555,29.035969,6.1447821,28.744942Q5.8810084,28.453911,5.6318328,28.150291Q5.382657099999999,27.846668,5.1486792999999995,27.531185Q4.9147017,27.215702,4.696486,26.889118Q4.4782701,26.562534,4.2763419,26.225639Q4.0744138,25.888744,3.8892597,25.542347Q3.7041054,25.195946,3.5361711,24.840878Q3.3682369000000003,24.485809,3.2179273,24.122932Q3.0676178,23.760052,2.93529487,23.390236Q2.80297196,23.020416,2.68895459,22.644554Q2.57493716,22.268688,2.47949991,21.88768Q2.38406265,21.506674,2.30743548,21.121443Q2.2308083,20.736212,2.17317583,20.347687Q2.11554334,19.95916,2.077044368,19.568275Q2.038545396,19.177387,2.019272698,18.785082Q2,18.392776,2,18Q2,17.607222,2.019272698,17.214917Q2.038545396,16.822613,2.077044368,16.431725999999998Q2.11554334,16.040838,2.17317581,15.652311Q2.2308083,15.263784,2.30743548,14.878554Q2.38406265,14.493323,2.47949988,14.112316Q2.57493716,13.73131,2.68895459,13.355445Q2.80297196,12.979579,2.93529487,12.609761Q3.0676178,12.239943,3.2179273,11.8770638Q3.3682369000000003,11.514184,3.5361711,11.1591167Q3.7041053,10.8040504,3.8892596,10.4576511Q4.0744138,10.1112518,4.2763419,9.774355400000001Q4.4782701,9.4374585,4.696486,9.1108756Q4.9147017,8.7842927,5.1486792999999995,8.468810999999999Q5.3826567999999995,8.1533289,5.6318326,7.8497076Q5.8810081,7.5460863,6.1447816,7.2550569Q6.408555,6.9640274,6.6862912,6.6862912Q6.9640274,6.408555,7.2550569,6.1447821Q7.5460863,5.8810084,7.8497076,5.6318328Q8.1533289,5.382657099999999,8.468810999999999,5.1486792999999995Q8.7842932,4.9147017,9.110876099999999,4.696486Q9.437459,4.4782701,9.774355400000001,4.2763419Q10.1112518,4.0744138,10.4576511,3.8892597Q10.8040504,3.7041054,11.1591167,3.5361711Q11.514184,3.3682369000000003,11.8770638,3.2179273Q12.239943,3.0676178,12.60976,2.93529487Q12.979579,2.80297196,13.355445,2.68895459Q13.73131,2.57493716,14.112316,2.47949991Q14.493323,2.38406265,14.878554,2.30743548Q15.263784,2.2308083,15.652311,2.17317583Q16.040838,2.11554334,16.431725999999998,2.077044368Q16.822613,2.038545396,17.214918,2.019272698Q17.607222,2,18,2Q18.392776,2,18.785082,2.019272698Q19.177387,2.038545396,19.568274,2.077044368Q19.95916,2.11554334,20.347685,2.17317581Q20.736212,2.2308083,21.121443,2.30743548Q21.506674,2.38406265,21.88768,2.47949988Q22.268688,2.57493716,22.644554,2.68895459Q23.020416,2.80297196,23.390234,2.93529487Q23.760052,3.0676178,24.122932,3.2179273Q24.485809,3.3682369000000003,24.840878,3.5361711Q25.195946,3.7041053,25.542345,3.8892596Q25.888744,4.0744138,26.225639,4.2763419Q26.562534,4.4782701,26.889118,4.696486Q27.215702,4.9147017,27.531185,5.1486792999999995Q27.846668,5.3826567999999995,28.150291,5.6318326Q28.453911,5.8810081,28.74494,6.1447816Q29.035969,6.408555,29.313705,6.6862912Q29.591442,6.9640274,29.855215,7.2550569Q30.118988,7.5460863,30.368164,7.8497076Q30.61734,8.1533289,30.851316,8.468810999999999Q31.085293,8.7842932,31.303509,9.110876099999999Q31.521725,9.437459,31.723654,9.774355400000001Q31.925583,10.1112518,32.110738999999995,10.4576511Q32.295891,10.8040504,32.463826999999995,11.1591167Q32.63176,11.514184,32.782070000000004,11.8770638Q32.932381,12.239943,33.064703,12.60976Q33.197025,12.979579,33.311045,13.355445Q33.42506,13.73131,33.520498,14.112316Q33.615936000000005,14.493323,33.692561999999995,14.878554Q33.769189999999995,15.263784,33.826822,15.652311Q33.884457,16.040838,33.922956,16.431725999999998Q33.961454,16.822613,33.980728,17.214918Q34,17.607222,34,18ZM32,18Q32,17.656319,31.983135,17.313052Q31.966272,16.969786,31.932587,16.627760000000002Q31.898899,16.285733999999998,31.848471,15.945772Q31.798042,15.605811,31.730991,15.268734Q31.66394,14.931657,31.580435,14.598276Q31.496925,14.264895,31.397161,13.936014Q31.297394,13.607132,31.181612,13.283541Q31.065828,12.959949,30.934309,12.64243Q30.802788,12.324911,30.655848,12.014227Q30.508905,11.7035427,30.346895,11.400444Q30.184887,11.0973454,30.008198,10.8025599Q29.831512,10.5077753,29.640572,10.2220154Q29.449633,9.9362555,29.244904,9.6602087Q29.040173,9.384161899999999,28.822147,9.1184936Q28.604118,8.8528247,28.373314,8.5981741Q28.142513,8.3435235,27.899492,8.1005044Q27.656473,7.8574858,27.401823,7.6266837Q27.147171,7.3958817,26.881504,7.1778531Q26.615833,6.9598246,26.339787,6.7550936Q26.06374,6.5503635,25.777979,6.3594246Q25.492218,6.1684856,25.197433,5.9917986Q24.902651,5.8151116,24.599552,5.653101899999999Q24.296452,5.4910917,23.985769,5.3441494Q23.675085,5.197207000000001,23.357565,5.0656862Q23.040047,4.934165500000001,22.716455,4.8183827Q22.392864,4.7026005,22.063984,4.6028351999999995Q21.7351,4.5030699,21.401718,4.4195623Q21.068338,4.336054799999999,20.731262,4.269006Q20.394186,4.2019572,20.054226,4.1515287999999995Q19.714266,4.1011004,19.37224,4.067413800000001Q19.030214,4.0337271999999995,18.686947,4.016863600000001Q18.343681,4,18,4Q17.656319,4,17.313052,4.016863600000001Q16.969786,4.0337271999999995,16.627760000000002,4.067413800000001Q16.285733999999998,4.1011004,15.945772,4.1515287999999995Q15.605811,4.2019572,15.268734,4.269006Q14.931657,4.336054799999999,14.598276,4.4195623Q14.264895,4.5030699,13.936014,4.6028351999999995Q13.607132,4.7026005,13.283541,4.8183827Q12.959949,4.934165500000001,12.64243,5.0656862Q12.324911,5.197207000000001,12.014227,5.3441496Q11.7035427,5.491092,11.400444,5.6531022Q11.0973454,5.8151119,10.8025599,5.9917991Q10.5077753,6.1684861,10.2220154,6.3594251Q9.9362555,6.5503635,9.6602087,6.7550945Q9.384161899999999,6.9598246,9.1184936,7.1778536Q8.8528247,7.3958821,8.5981741,7.6266837Q8.3435235,7.8574858,8.1005044,8.1005049Q7.8574858,8.343524,7.6266837,8.5981741Q7.3958817,8.8528252,7.1778531,9.118494Q6.9598246,9.384161899999999,6.7550936,9.6602087Q6.5503635,9.9362555,6.3594246,10.2220154Q6.1684856,10.5077753,5.9917986,10.8025599Q5.8151116,11.0973454,5.653101700000001,11.400445Q5.4910917,11.7035446,5.3441491,12.014228Q5.197207000000001,12.324911,5.0656859999999995,12.642431Q4.9341652,12.95995,4.8183827,13.283541Q4.7026002,13.607132,4.6028348999999995,13.936014Q4.5030699,14.264896,4.4195621,14.598277Q4.336054600000001,14.931658,4.2690058,15.268735Q4.2019572,15.605812,4.1515287999999995,15.945773Q4.1011004,16.285733999999998,4.067413800000001,16.627760000000002Q4.0337271999999995,16.969786,4.016863600000001,17.313053Q4,17.656319,4,18Q4,18.343681,4.016863600000001,18.686947Q4.0337271999999995,19.030214,4.067413800000001,19.37224Q4.1011004,19.714266,4.1515287999999995,20.054226Q4.2019572,20.394186,4.2690058,20.731262Q4.336054600000001,21.068338,4.4195621,21.40172Q4.5030699,21.7351,4.6028351999999995,22.063984Q4.7026005,22.392864,4.8183827,22.716455Q4.934165500000001,23.040047,5.0656862,23.357565Q5.197207000000001,23.675085,5.3441496,23.985767Q5.491092,24.296452,5.6531022,24.599552Q5.8151119,24.902651,5.9917991,25.197437Q6.1684861,25.49222,6.3594251,25.777981Q6.5503635,26.06374,6.7550945,26.339787Q6.9598246,26.615835,7.1778536,26.881506Q7.3958821,27.147175,7.6266837,27.401825Q7.8574858,27.656475,8.1005049,27.899494Q8.343524,28.142513,8.5981741,28.373316Q8.8528252,28.604116,9.118494,28.822145Q9.384161899999999,29.040173,9.6602087,29.244902Q9.9362555,29.449633,10.2220154,29.640572Q10.5077753,29.831512,10.8025599,30.008198Q11.0973454,30.184887,11.400445,30.346895Q11.7035446,30.508905,12.014228,30.655848Q12.324911,30.802788,12.642431,30.934309Q12.95995,31.065828,13.283541,31.181612Q13.607132,31.297396,13.936014,31.397163Q14.264896,31.496927,14.598277,31.580435Q14.931658,31.66394,15.268735,31.730991Q15.605812,31.798042,15.945773,31.848471Q16.285733999999998,31.898899,16.627760000000002,31.932587Q16.969786,31.966272,17.313053,31.983135Q17.656319,32,18,32Q18.343681,32,18.686947,31.983135Q19.030214,31.966272,19.37224,31.932587Q19.714266,31.898899,20.054226,31.848471Q20.394186,31.798042,20.731262,31.730991Q21.068338,31.66394,21.40172,31.580435Q21.7351,31.496925,22.063984,31.397161Q22.392864,31.297394,22.716455,31.181612Q23.040047,31.065828,23.357565,30.934309Q23.675085,30.802788,23.985767,30.655848Q24.296452,30.508905,24.599552,30.346895Q24.902651,30.184887,25.197437,30.008198Q25.49222,29.831512,25.777981,29.640572Q26.06374,29.449633,26.339787,29.244904Q26.615835,29.040173,26.881506,28.822147Q27.147175,28.604118,27.401825,28.373314Q27.656475,28.142513,27.899494,27.899492Q28.142513,27.656473,28.373316,27.401823Q28.604116,27.147171,28.822145,26.881504Q29.040173,26.615833,29.244902,26.339787Q29.449633,26.06374,29.640572,25.777979Q29.831512,25.492218,30.008198,25.197433Q30.184887,24.902651,30.346895,24.599552Q30.508905,24.296452,30.655848,23.985769Q30.802788,23.675085,30.934309,23.357565Q31.065828,23.040047,31.181612,22.716455Q31.297396,22.392864,31.397163,22.063984Q31.496927,21.7351,31.580435,21.401718Q31.66394,21.068338,31.730991,20.731262Q31.798042,20.394186,31.848471,20.054226Q31.898899,19.714266,31.932587,19.37224Q31.966272,19.030214,31.983135,18.686947Q32,18.343681,32,18Z" fill="#6E20D1" fill-opacity="1"/></g><g><path d="M31,18Q31,18.319132,30.984341,18.637878999999998Q30.968683,18.956628000000002,30.937403,19.274223Q30.90612,19.591818,30.859293,19.907496000000002Q30.812466,20.223173,30.750206,20.536172999999998Q30.687946,20.849173,30.610405,21.158741Q30.532864,21.468309,30.440224,21.773701Q30.347584,22.07909,30.240072,22.379566Q30.132557,22.680042,30.010431,22.974882Q29.888306,23.269722,29.75186,23.558214Q29.615414,23.846706,29.464977,24.128157Q29.314537,24.409605,29.150471,24.683334Q28.986404,24.957062,28.809105,25.222412Q28.631805,25.487761,28.441698,25.744091Q28.251591,26.00042,28.049137,26.247112Q27.84668,26.493805,27.632364,26.730265Q27.418047,26.966726,27.192387,27.192387Q26.966726,27.418047,26.730267,27.632364Q26.493805,27.84668,26.247112,28.049137Q26.00042,28.251591,25.744089,28.441696Q25.487761,28.631802,25.222412,28.809103Q24.957062,28.986403,24.683334,29.150471Q24.409605,29.314537,24.128157,29.464975Q23.846706,29.615414,23.558214,29.75186Q23.269722,29.888306,22.974882,30.010431Q22.680042,30.132557,22.379566,30.24007Q22.07909,30.347584,21.773701,30.440224Q21.468309,30.532864,21.158741,30.610405Q20.849173,30.687946,20.536172999999998,30.750206Q20.223173,30.812466,19.907495,30.859293Q19.591818,30.90612,19.274223,30.937403Q18.956628000000002,30.968681,18.63788,30.984341Q18.319132,31,18,31Q17.680868,31,17.36212,30.984341Q17.043373000000003,30.968681,16.725778,30.937403Q16.408182,30.90612,16.092505,30.859293Q15.776826,30.812466,15.463825,30.750206Q15.150826,30.687946,14.8412571,30.610405Q14.5316887,30.532864,14.2262993,30.440224Q13.9209089,30.347584,13.6204319,30.240072Q13.3199549,30.132557,13.025115,30.010431Q12.730275200000001,29.888306,12.4417839,29.75186Q12.1532917,29.615414,11.8718424,29.464977Q11.5903931,29.314537,11.3166637,29.150471Q11.042935400000001,28.986404,10.7775865,28.809105Q10.512237500000001,28.631805,10.2559085,28.441698Q9.9995794,28.251591,9.7528872,28.049137Q9.5061946,27.84668,9.2697334,27.632364Q9.0332723,27.418047,8.807611699999999,27.192387Q8.5819511,26.966726,8.3676353,26.730267Q8.1533189,26.493805,7.9508638000000005,26.247112Q7.7484082999999995,26.00042,7.5583016999999995,25.744089Q7.368195099999999,25.487761,7.190894800000001,25.222412Q7.013594599999999,24.957062,6.849528,24.683334Q6.6854613,24.409605,6.5350236,24.128157Q6.3845857,23.846706,6.2481390999999995,23.558214Q6.1116925,23.269722,5.98956597,22.974882Q5.86743945,22.680042,5.75992709,22.379566Q5.65241474,22.07909,5.55977559,21.773701Q5.46713644,21.468309,5.38959366,21.158741Q5.31205091,20.849173,5.24979132,20.536172999999998Q5.18753175,20.223173,5.14070535,19.907495Q5.093878962,19.591818,5.062598549,19.274223Q5.031318136,18.956628000000002,5.015659068,18.63788Q5,18.319132,5,18Q5,17.680868,5.015659068,17.36212Q5.031318136,17.043373000000003,5.062598549,16.725778Q5.093878962,16.408182,5.14070535,16.092505Q5.18753175,15.776826,5.24979132,15.463825Q5.31205091,15.150826,5.38959366,14.8412571Q5.46713644,14.5316887,5.55977559,14.2262993Q5.65241474,13.9209089,5.75992709,13.6204319Q5.86743945,13.3199549,5.98956597,13.025115Q6.1116925,12.730275200000001,6.2481390999999995,12.4417839Q6.3845856,12.1532917,6.5350235,11.8718424Q6.6854613,11.5903931,6.8495278,11.3166637Q7.013594599999999,11.042935400000001,7.190894800000001,10.7775865Q7.368195099999999,10.512237500000001,7.5583016999999995,10.2559085Q7.7484082999999995,9.9995794,7.9508638000000005,9.7528872Q8.1533189,9.5061946,8.367635,9.2697334Q8.5819511,9.0332723,8.807611699999999,8.807611699999999Q9.0332723,8.5819511,9.2697334,8.3676353Q9.5061941,8.1533189,9.752886799999999,7.9508638000000005Q9.999579,7.7484082999999995,10.255908,7.5583016999999995Q10.512237500000001,7.368195099999999,10.777586,7.190894800000001Q11.0429344,7.013594599999999,11.3166633,6.849528Q11.590392099999999,6.6854613,11.8718419,6.5350236Q12.1532907,6.3845857,12.441783000000001,6.2481390999999995Q12.730274699999999,6.1116925,13.0251141,5.98956597Q13.3199539,5.86743945,13.6204309,5.75992709Q13.920908,5.65241474,14.2262983,5.55977559Q14.5316887,5.46713644,14.8412571,5.38959366Q15.150826,5.31205091,15.463825,5.24979132Q15.776826,5.18753175,16.092505,5.14070535Q16.408182,5.093878962,16.725778,5.062598549Q17.043373000000003,5.031318136,17.36212,5.015659068Q17.680868,5,18,5Q18.319132,5,18.637878999999998,5.015659068Q18.956628000000002,5.031318136,19.274223,5.062598549Q19.591818,5.093878962,19.907496000000002,5.14070535Q20.223173,5.18753175,20.536172999999998,5.24979132Q20.849173,5.31205091,21.158741,5.38959366Q21.468309,5.46713644,21.773701,5.55977559Q22.07909,5.65241474,22.379566,5.75992709Q22.680042,5.86743945,22.974882,5.98956597Q23.269722,6.1116925,23.558214,6.2481390999999995Q23.846706,6.3845856,24.128157,6.5350235Q24.409605,6.6854613,24.683334,6.8495278Q24.957062,7.013594599999999,25.222412,7.190894800000001Q25.487761,7.368195099999999,25.744091,7.5583016999999995Q26.00042,7.7484082999999995,26.247112,7.9508638000000005Q26.493805,8.1533189,26.730265,8.367635Q26.966726,8.5819511,27.192387,8.807611699999999Q27.418047,9.0332723,27.632364,9.2697334Q27.84668,9.5061941,28.049137,9.752886799999999Q28.251591,9.999579,28.441696,10.255908Q28.631802,10.512237500000001,28.809103,10.777586Q28.986403,11.0429344,29.150471,11.3166633Q29.314537,11.590392099999999,29.464975,11.8718419Q29.615414,12.1532907,29.75186,12.441783000000001Q29.888306,12.730274699999999,30.010431,13.0251141Q30.132557,13.3199539,30.24007,13.6204309Q30.347584,13.920908,30.440224,14.2262983Q30.532864,14.5316887,30.610405,14.8412571Q30.687946,15.150826,30.750206,15.463825Q30.812466,15.776826,30.859293,16.092505Q30.90612,16.408182,30.937403,16.725778Q30.968683,17.043373000000003,30.984341,17.36212Q31,17.680868,31,18ZM29,18Q29,17.729965,28.98675,17.460256Q28.973499,17.190545999999998,28.947033,16.921812Q28.920563,16.653076,28.880941,16.385964Q28.841316,16.118852,28.788635,15.854006Q28.735954,15.58916,28.670343,15.327218Q28.604729,15.065277,28.526342,14.8068695Q28.447954,14.5484619,28.356981,14.2942123Q28.26601,14.0399609,28.162672,13.7904816Q28.059334,13.5410023,27.94388,13.2968941Q27.828426,13.0527859,27.701134,12.814636199999999Q27.573839,12.576486599999999,27.435013,12.344869599999999Q27.296188,12.1132531,27.146164,11.8887272Q26.99614,11.6642017,26.835281,11.4473076Q26.674423,11.2304134,26.503115,11.0216742Q26.331806,10.8129339,26.150461,10.6128511Q25.969116,10.412768400000001,25.778173,10.2218251Q25.587231,10.0308819,25.387146,9.849537399999999Q25.187065,9.668192900000001,24.978325,9.4968848Q24.769585,9.3255768,24.552689,9.1647167Q24.335796,9.0038576,24.111271,8.8538339Q23.886745,8.7038107,23.655128,8.5649848Q23.423512,8.4261594,23.185364,8.2988658Q22.947214,8.1715722,22.703106,8.0561175Q22.458996,7.9406624,22.209517,7.8373249000000005Q21.960037,7.7339869,21.705788,7.6430149Q21.451538,7.552042999999999,21.19313,7.473656200000001Q20.934722999999998,7.3952694,20.672781,7.329656099999999Q20.410838,7.2640431,20.145992,7.2113619Q19.881146,7.1586807,19.614036,7.1190584Q19.346924,7.079436100000001,19.078189000000002,7.052968Q18.809454000000002,7.0265,18.539743,7.0132499Q18.270035,7,18,7Q17.729965,7,17.460256,7.0132499Q17.190545999999998,7.0265,16.921812,7.052968Q16.653076,7.079436100000001,16.385964,7.1190584Q16.118852,7.1586807,15.854006,7.2113619Q15.58916,7.2640431,15.327218,7.3296564Q15.065277,7.3952694,14.8068695,7.473656399999999Q14.5484619,7.5520432,14.2942123,7.6430149Q14.0399609,7.7339869,13.7904816,7.8373249000000005Q13.5410023,7.9406624,13.2968941,8.0561173Q13.0527859,8.1715722,12.814636199999999,8.2988658Q12.576486599999999,8.4261591,12.344869599999999,8.5649848Q12.1132531,8.7038102,11.8887272,8.8538337Q11.6642017,9.003857100000001,11.4473076,9.1647167Q11.2304134,9.3255763,11.0216742,9.4968848Q10.8129339,9.668192900000001,10.6128511,9.849537399999999Q10.412768400000001,10.0308819,10.2218251,10.2218251Q10.0308819,10.412768400000001,9.849537399999999,10.6128511Q9.668192900000001,10.8129339,9.4968848,11.0216742Q9.3255768,11.2304134,9.1647167,11.4473076Q9.0038576,11.6642017,8.8538339,11.8887272Q8.7038107,12.1132531,8.5649848,12.3448701Q8.4261594,12.576486599999999,8.2988658,12.814636199999999Q8.1715722,13.0527859,8.0561175,13.2968941Q7.9406624,13.5410023,7.8373249000000005,13.7904816Q7.7339869,14.0399609,7.6430149,14.2942114Q7.552042999999999,14.5484619,7.473656200000001,14.8068695Q7.3952691999999995,15.065277,7.329656099999999,15.327218Q7.2640429,15.58916,7.2113619,15.854006Q7.1586807,16.118852,7.1190584,16.385964Q7.079436100000001,16.653076,7.052968,16.921812Q7.0265,17.190545999999998,7.0132499,17.460255Q7,17.729965,7,18Q7,18.270035,7.0132499,18.539744Q7.0265,18.809454000000002,7.052968,19.078189000000002Q7.079436100000001,19.346924,7.1190584,19.614035Q7.1586804,19.881146,7.2113616,20.145992Q7.2640429,20.410838,7.329655900000001,20.672781Q7.3952689,20.934722999999998,7.4736559,21.19313Q7.552042999999999,21.451538,7.6430147,21.705788Q7.7339869,21.960037,7.8373246000000005,22.209517Q7.9406624,22.458996,8.0561173,22.703106Q8.1715722,22.947214,8.2988658,23.185364Q8.4261591,23.423512,8.5649848,23.655128Q8.7038102,23.886745,8.8538337,24.111271Q9.003857100000001,24.335796,9.1647167,24.552689Q9.3255763,24.769585,9.4968848,24.978325Q9.668192900000001,25.187065,9.849537399999999,25.387146Q10.0308819,25.587231,10.2218251,25.778173Q10.412768400000001,25.969116,10.6128511,26.150461Q10.8129339,26.331806,11.0216742,26.503115Q11.2304134,26.674423,11.4473076,26.835281Q11.6642017,26.99614,11.8887272,27.146164Q12.1132531,27.296188,12.3448701,27.435013Q12.576486599999999,27.573837,12.814636199999999,27.701132Q13.0527859,27.828424,13.2968941,27.943878Q13.5410023,28.059334,13.7904816,28.162672Q14.0399609,28.26601,14.2942114,28.356981Q14.5484619,28.447956,14.8068695,28.526344Q15.065277,28.604731,15.327218,28.670343Q15.58916,28.735954,15.854006,28.788635Q16.118852,28.841316,16.385964,28.880941Q16.653076,28.920563,16.921812,28.947033Q17.190545999999998,28.973499,17.460255,28.986752Q17.729965,29,18,29Q18.270035,29,18.539744,28.98675Q18.809454000000002,28.973499,19.078189000000002,28.947033Q19.346924,28.920563,19.614035,28.880941Q19.881146,28.841316,20.145992,28.788635Q20.410838,28.735954,20.672781,28.670343Q20.934722999999998,28.604729,21.19313,28.526342Q21.451538,28.447954,21.705788,28.356981Q21.960037,28.26601,22.209517,28.162672Q22.458996,28.059334,22.703106,27.94388Q22.947214,27.828426,23.185364,27.701134Q23.423512,27.573839,23.655128,27.435013Q23.886745,27.296188,24.111271,27.146164Q24.335796,26.99614,24.552689,26.835281Q24.769585,26.674423,24.978325,26.503115Q25.187065,26.331806,25.387146,26.150461Q25.587231,25.969116,25.778173,25.778173Q25.969116,25.587231,26.150461,25.387146Q26.331806,25.187065,26.503115,24.978325Q26.674423,24.769585,26.835281,24.552689Q26.99614,24.335796,27.146164,24.111271Q27.296188,23.886745,27.435013,23.655128Q27.573837,23.423512,27.701132,23.185364Q27.828424,22.947214,27.943878,22.703106Q28.059334,22.458996,28.162672,22.209517Q28.26601,21.960037,28.356981,21.705788Q28.447956,21.451538,28.526344,21.19313Q28.604731,20.934722999999998,28.670343,20.672781Q28.735954,20.410838,28.788635,20.145992Q28.841316,19.881146,28.880941,19.614036Q28.920563,19.346924,28.947033,19.078189000000002Q28.973499,18.809454000000002,28.986752,18.539743Q29,18.270035,29,18Z" fill="#6E20D1" fill-opacity="1"/></g></g></svg>