<svg xmlns="http://www.w3.org/2000/svg" xmlns:xlink="http://www.w3.org/1999/xlink" fill="none" version="1.1" width="36" height="36" viewBox="0 0 36 36"><defs><clipPath id="master_svg0_850_63466"><rect x="0" y="0" width="36" height="36" rx="0"/></clipPath></defs><g clip-path="url(#master_svg0_850_63466)"><g><path d="M34,18Q34,18.392776,33.980726000000004,18.785082Q33.961454,19.177387,33.922956,19.568274Q33.884457,19.95916,33.826824,20.347685Q33.769189999999995,20.736212,33.692561999999995,21.121443Q33.615933999999996,21.506674,33.520496,21.88768Q33.42506,22.268688,33.311043,22.644554Q33.197025,23.020416,33.064701,23.390234Q32.932377,23.760052,32.782067999999995,24.122932Q32.63176,24.485809,32.463825,24.840878Q32.295891,25.195946,32.110737,25.542345Q31.925583,25.888744,31.723654,26.225639Q31.521725,26.562534,31.303509,26.889118Q31.085293,27.215702,30.851316,27.531185Q30.61734,27.846668,30.368164,28.150291Q30.118988,28.453911,29.855215,28.74494Q29.591442,29.035969,29.313705,29.313705Q29.035969,29.591442,28.744942,29.855215Q28.453911,30.118988,28.150291,30.368164Q27.846668,30.61734,27.531185,30.851316Q27.215702,31.085293,26.889118,31.303509Q26.562534,31.521725,26.225639,31.723654Q25.888744,31.925583,25.542347,32.110738999999995Q25.195946,32.295891,24.840878,32.463826999999995Q24.485809,32.63176,24.122932,32.782070000000004Q23.760052,32.932381,23.390236,33.064703Q23.020416,33.197025,22.644554,33.311045Q22.268688,33.42506,21.88768,33.520498Q21.506674,33.615936000000005,21.121443,33.692561999999995Q20.736212,33.769189999999995,20.347687,33.826822Q19.95916,33.884457,19.568275,33.922956Q19.177387,33.961454,18.785082,33.980728Q18.392776,34,18,34Q17.607222,34,17.214917,33.980726000000004Q16.822613,33.961454,16.431725999999998,33.922956Q16.040838,33.884457,15.652311,33.826824Q15.263784,33.769189999999995,14.878554,33.692561999999995Q14.493323,33.615933999999996,14.112316,33.520496Q13.73131,33.42506,13.355445,33.311043Q12.979579,33.197025,12.609761,33.064701Q12.239943,32.932377,11.8770638,32.782067999999995Q11.514184,32.63176,11.1591167,32.463825Q10.8040504,32.295891,10.4576511,32.110737Q10.1112518,31.925583,9.774355400000001,31.723654Q9.4374585,31.521725,9.1108756,31.303509Q8.7842927,31.085293,8.468810999999999,30.851316Q8.1533289,30.61734,7.8497076,30.368164Q7.5460863,30.118988,7.2550569,29.855215Q6.9640274,29.591442,6.6862912,29.313705Q6.408555,29.035969,6.1447821,28.744942Q5.8810084,28.453911,5.6318328,28.150291Q5.382657099999999,27.846668,5.1486792999999995,27.531185Q4.9147017,27.215702,4.696486,26.889118Q4.4782701,26.562534,4.2763419,26.225639Q4.0744138,25.888744,3.8892597,25.542347Q3.7041054,25.195946,3.5361711,24.840878Q3.3682369000000003,24.485809,3.2179273,24.122932Q3.0676178,23.760052,2.93529487,23.390236Q2.80297196,23.020416,2.68895459,22.644554Q2.57493716,22.268688,2.47949991,21.88768Q2.38406265,21.506674,2.30743548,21.121443Q2.2308083,20.736212,2.17317583,20.347687Q2.11554334,19.95916,2.077044368,19.568275Q2.038545396,19.177387,2.019272698,18.785082Q2,18.392776,2,18Q2,17.607222,2.019272698,17.214917Q2.038545396,16.822613,2.077044368,16.431725999999998Q2.11554334,16.040838,2.17317581,15.652311Q2.2308083,15.263784,2.30743548,14.878554Q2.38406265,14.493323,2.47949988,14.112316Q2.57493716,13.73131,2.68895459,13.355445Q2.80297196,12.979579,2.93529487,12.609761Q3.0676178,12.239943,3.2179273,11.8770638Q3.3682369000000003,11.514184,3.5361711,11.1591167Q3.7041053,10.8040504,3.8892596,10.4576511Q4.0744138,10.1112518,4.2763419,9.774355400000001Q4.4782701,9.4374585,4.696486,9.1108756Q4.9147017,8.7842927,5.1486792999999995,8.468810999999999Q5.3826567999999995,8.1533289,5.6318326,7.8497076Q5.8810081,7.5460863,6.1447816,7.2550569Q6.408555,6.9640274,6.6862912,6.6862912Q6.9640274,6.408555,7.2550569,6.1447821Q7.5460863,5.8810084,7.8497076,5.6318328Q8.1533289,5.382657099999999,8.468810999999999,5.1486792999999995Q8.7842932,4.9147017,9.110876099999999,4.696486Q9.437459,4.4782701,9.774355400000001,4.2763419Q10.1112518,4.0744138,10.4576511,3.8892597Q10.8040504,3.7041054,11.1591167,3.5361711Q11.514184,3.3682369000000003,11.8770638,3.2179273Q12.239943,3.0676178,12.60976,2.93529487Q12.979579,2.80297196,13.355445,2.68895459Q13.73131,2.57493716,14.112316,2.47949991Q14.493323,2.38406265,14.878554,2.30743548Q15.263784,2.2308083,15.652311,2.17317583Q16.040838,2.11554334,16.431725999999998,2.077044368Q16.822613,2.038545396,17.214918,2.019272698Q17.607222,2,18,2Q18.392776,2,18.785082,2.019272698Q19.177387,2.038545396,19.568274,2.077044368Q19.95916,2.11554334,20.347685,2.17317581Q20.736212,2.2308083,21.121443,2.30743548Q21.506674,2.38406265,21.88768,2.47949988Q22.268688,2.57493716,22.644554,2.68895459Q23.020416,2.80297196,23.390234,2.93529487Q23.760052,3.0676178,24.122932,3.2179273Q24.485809,3.3682369000000003,24.840878,3.5361711Q25.195946,3.7041053,25.542345,3.8892596Q25.888744,4.0744138,26.225639,4.2763419Q26.562534,4.4782701,26.889118,4.696486Q27.215702,4.9147017,27.531185,5.1486792999999995Q27.846668,5.3826567999999995,28.150291,5.6318326Q28.453911,5.8810081,28.74494,6.1447816Q29.035969,6.408555,29.313705,6.6862912Q29.591442,6.9640274,29.855215,7.2550569Q30.118988,7.5460863,30.368164,7.8497076Q30.61734,8.1533289,30.851316,8.468810999999999Q31.085293,8.7842932,31.303509,9.110876099999999Q31.521725,9.437459,31.723654,9.774355400000001Q31.925583,10.1112518,32.110738999999995,10.4576511Q32.295891,10.8040504,32.463826999999995,11.1591167Q32.63176,11.514184,32.782070000000004,11.8770638Q32.932381,12.239943,33.064703,12.60976Q33.197025,12.979579,33.311045,13.355445Q33.42506,13.73131,33.520498,14.112316Q33.615936000000005,14.493323,33.692561999999995,14.878554Q33.769189999999995,15.263784,33.826822,15.652311Q33.884457,16.040838,33.922956,16.431725999999998Q33.961454,16.822613,33.980728,17.214918Q34,17.607222,34,18ZM32,18Q32,17.656319,31.983135,17.313052Q31.966272,16.969786,31.932587,16.627760000000002Q31.898899,16.285733999999998,31.848471,15.945772Q31.798042,15.605811,31.730991,15.268734Q31.66394,14.931657,31.580435,14.598276Q31.496925,14.264895,31.397161,13.936014Q31.297394,13.607132,31.181612,13.283541Q31.065828,12.959949,30.934309,12.64243Q30.802788,12.324911,30.655848,12.014227Q30.508905,11.7035427,30.346895,11.400444Q30.184887,11.0973454,30.008198,10.8025599Q29.831512,10.5077753,29.640572,10.2220154Q29.449633,9.9362555,29.244904,9.6602087Q29.040173,9.384161899999999,28.822147,9.1184936Q28.604118,8.8528247,28.373314,8.5981741Q28.142513,8.3435235,27.899492,8.1005044Q27.656473,7.8574858,27.401823,7.6266837Q27.147171,7.3958817,26.881504,7.1778531Q26.615833,6.9598246,26.339787,6.7550936Q26.06374,6.5503635,25.777979,6.3594246Q25.492218,6.1684856,25.197433,5.9917986Q24.902651,5.8151116,24.599552,5.653101899999999Q24.296452,5.4910917,23.985769,5.3441494Q23.675085,5.197207000000001,23.357565,5.0656862Q23.040047,4.934165500000001,22.716455,4.8183827Q22.392864,4.7026005,22.063984,4.6028351999999995Q21.7351,4.5030699,21.401718,4.4195623Q21.068338,4.336054799999999,20.731262,4.269006Q20.394186,4.2019572,20.054226,4.1515287999999995Q19.714266,4.1011004,19.37224,4.067413800000001Q19.030214,4.0337271999999995,18.686947,4.016863600000001Q18.343681,4,18,4Q17.656319,4,17.313052,4.016863600000001Q16.969786,4.0337271999999995,16.627760000000002,4.067413800000001Q16.285733999999998,4.1011004,15.945772,4.1515287999999995Q15.605811,4.2019572,15.268734,4.269006Q14.931657,4.336054799999999,14.598276,4.4195623Q14.264895,4.5030699,13.936014,4.6028351999999995Q13.607132,4.7026005,13.283541,4.8183827Q12.959949,4.934165500000001,12.64243,5.0656862Q12.324911,5.197207000000001,12.014227,5.3441496Q11.7035427,5.491092,11.400444,5.6531022Q11.0973454,5.8151119,10.8025599,5.9917991Q10.5077753,6.1684861,10.2220154,6.3594251Q9.9362555,6.5503635,9.6602087,6.7550945Q9.384161899999999,6.9598246,9.1184936,7.1778536Q8.8528247,7.3958821,8.5981741,7.6266837Q8.3435235,7.8574858,8.1005044,8.1005049Q7.8574858,8.343524,7.6266837,8.5981741Q7.3958817,8.8528252,7.1778531,9.118494Q6.9598246,9.384161899999999,6.7550936,9.6602087Q6.5503635,9.9362555,6.3594246,10.2220154Q6.1684856,10.5077753,5.9917986,10.8025599Q5.8151116,11.0973454,5.653101700000001,11.400445Q5.4910917,11.7035446,5.3441491,12.014228Q5.197207000000001,12.324911,5.0656859999999995,12.642431Q4.9341652,12.95995,4.8183827,13.283541Q4.7026002,13.607132,4.6028348999999995,13.936014Q4.5030699,14.264896,4.4195621,14.598277Q4.336054600000001,14.931658,4.2690058,15.268735Q4.2019572,15.605812,4.1515287999999995,15.945773Q4.1011004,16.285733999999998,4.067413800000001,16.627760000000002Q4.0337271999999995,16.969786,4.016863600000001,17.313053Q4,17.656319,4,18Q4,18.343681,4.016863600000001,18.686947Q4.0337271999999995,19.030214,4.067413800000001,19.37224Q4.1011004,19.714266,4.1515287999999995,20.054226Q4.2019572,20.394186,4.2690058,20.731262Q4.336054600000001,21.068338,4.4195621,21.40172Q4.5030699,21.7351,4.6028351999999995,22.063984Q4.7026005,22.392864,4.8183827,22.716455Q4.934165500000001,23.040047,5.0656862,23.357565Q5.197207000000001,23.675085,5.3441496,23.985767Q5.491092,24.296452,5.6531022,24.599552Q5.8151119,24.902651,5.9917991,25.197437Q6.1684861,25.49222,6.3594251,25.777981Q6.5503635,26.06374,6.7550945,26.339787Q6.9598246,26.615835,7.1778536,26.881506Q7.3958821,27.147175,7.6266837,27.401825Q7.8574858,27.656475,8.1005049,27.899494Q8.343524,28.142513,8.5981741,28.373316Q8.8528252,28.604116,9.118494,28.822145Q9.384161899999999,29.040173,9.6602087,29.244902Q9.9362555,29.449633,10.2220154,29.640572Q10.5077753,29.831512,10.8025599,30.008198Q11.0973454,30.184887,11.400445,30.346895Q11.7035446,30.508905,12.014228,30.655848Q12.324911,30.802788,12.642431,30.934309Q12.95995,31.065828,13.283541,31.181612Q13.607132,31.297396,13.936014,31.397163Q14.264896,31.496927,14.598277,31.580435Q14.931658,31.66394,15.268735,31.730991Q15.605812,31.798042,15.945773,31.848471Q16.285733999999998,31.898899,16.627760000000002,31.932587Q16.969786,31.966272,17.313053,31.983135Q17.656319,32,18,32Q18.343681,32,18.686947,31.983135Q19.030214,31.966272,19.37224,31.932587Q19.714266,31.898899,20.054226,31.848471Q20.394186,31.798042,20.731262,31.730991Q21.068338,31.66394,21.40172,31.580435Q21.7351,31.496925,22.063984,31.397161Q22.392864,31.297394,22.716455,31.181612Q23.040047,31.065828,23.357565,30.934309Q23.675085,30.802788,23.985767,30.655848Q24.296452,30.508905,24.599552,30.346895Q24.902651,30.184887,25.197437,30.008198Q25.49222,29.831512,25.777981,29.640572Q26.06374,29.449633,26.339787,29.244904Q26.615835,29.040173,26.881506,28.822147Q27.147175,28.604118,27.401825,28.373314Q27.656475,28.142513,27.899494,27.899492Q28.142513,27.656473,28.373316,27.401823Q28.604116,27.147171,28.822145,26.881504Q29.040173,26.615833,29.244902,26.339787Q29.449633,26.06374,29.640572,25.777979Q29.831512,25.492218,30.008198,25.197433Q30.184887,24.902651,30.346895,24.599552Q30.508905,24.296452,30.655848,23.985769Q30.802788,23.675085,30.934309,23.357565Q31.065828,23.040047,31.181612,22.716455Q31.297396,22.392864,31.397163,22.063984Q31.496927,21.7351,31.580435,21.401718Q31.66394,21.068338,31.730991,20.731262Q31.798042,20.394186,31.848471,20.054226Q31.898899,19.714266,31.932587,19.37224Q31.966272,19.030214,31.983135,18.686947Q32,18.343681,32,18Z" fill="#6E20D1" fill-opacity="1"/></g></g></svg>