<svg xmlns="http://www.w3.org/2000/svg" xmlns:xlink="http://www.w3.org/1999/xlink" fill="none" version="1.1" width="82" height="82" viewBox="0 0 82 82"><defs><mask id="master_svg0_649_231402" style="mask-type:alpha" maskUnits="objectBoundingBox"><g><path d="M0,0L69.199997,0C73.680428,0,75.971283,0.0090700388,77.67646,0.89294559C79.144173,1.6537329,80.346268,2.8558278,81.107056,4.3235397C81.990929,6.0287137,82,8.3195744,82,12.800002L82,82L0,0Z" fill-rule="evenodd" fill="#FFFFFF" fill-opacity="1"/></g></mask><clipPath id="master_svg1_649_213776"><rect x="9" y="9" width="64" height="64" rx="0"/></clipPath></defs><g mask="url(#master_svg0_649_231402)"><g style="opacity:0.5;"><path d="M0,0L69.199997,0C73.680428,0,75.971283,0.0090700388,77.67646,0.89294559C79.144173,1.6537329,80.346268,2.8558278,81.107056,4.3235397C81.990929,6.0287137,82,8.3195744,82,12.800002L82,82L0,0Z" fill-rule="evenodd" fill="#FFFFFF" fill-opacity="1"/></g><g clip-path="url(#master_svg1_649_213776)"><g><path d="M67.66666644459534,17.26666645250244C68.25333244459534,17.26666645250244,68.73333144459534,17.74666595250244,68.73333144459534,18.333333052502443L68.73333144459534,50.33333325250244C68.73333144459534,50.91999925250244,68.25333244459534,51.39999825250244,67.66666644459534,51.39999825250244L14.333333444595336,51.39999825250244C13.746666944595336,51.39999825250244,13.266666844595337,50.91999925250244,13.266666844595337,50.33333325250244L13.266666844595337,18.333332052502442C13.266666844595337,17.746664952502442,13.746666944595336,17.26666545250244,14.333333444595336,17.26666545250244L67.66666644459534,17.26666645250244ZM67.66666244459535,15.133332252502441L14.333333444595336,15.133332252502441C12.562666844595338,15.133332252502441,11.133333444595337,16.56266545250244,11.133333444595337,18.333332052502442L11.133333444595337,50.33333325250244C11.133333444595337,52.10400125250244,12.562666844595338,53.53333425250244,14.333333444595336,53.53333425250244L67.66666244459535,53.53333425250244C69.43733044459535,53.53333425250244,70.86666344459533,52.10400125250244,70.86666344459533,50.33333325250244L70.86666344459533,18.333332052502442C70.86666344459533,16.57333185250244,69.43733044459535,15.133332252502441,67.66666244459535,15.133332252502441Z" fill="#A8ABB0" fill-opacity="1" style="mix-blend-mode:passthrough"/></g><g><path d="M17.533333778381348,21.533333778381348L64.46666777838135,21.533333778381348L64.46666777838135,47.13333577838135L17.533333778381348,47.13333577838135L17.533333778381348,21.533333778381348ZM26.06666757838135,52.274666778381345L55.93333577838135,52.274666778381345L55.93333577838135,65.26666777838135L26.06666757838135,65.26666777838135L26.06666757838135,52.274666778381345Z" fill="#A8ABB0" fill-opacity="1" style="mix-blend-mode:passthrough"/></g><g><path d="M65.4480021411438,66.86666483823242L16.5520000411438,66.86666483823242C15.666666981143798,66.86666483823242,14.952000141143799,66.15199663823242,14.952000141143799,65.26666643823242C14.952000141143799,64.38133620823243,15.666666981143798,63.66666793823242,16.5520000411438,63.66666793823242L65.4373321411438,63.66666793823242C66.3226671411438,63.66666793823242,67.0373311411438,64.38133620823243,67.0373311411438,65.26666643823242C67.0479971411438,66.14133453823243,66.3333321411438,66.86666483823242,65.4480021411438,66.86666483823242Z" fill="#A8ABB0" fill-opacity="1" style="mix-blend-mode:passthrough"/></g></g></g></svg>