<svg xmlns="http://www.w3.org/2000/svg" xmlns:xlink="http://www.w3.org/1999/xlink" fill="none" version="1.1" width="82" height="82" viewBox="0 0 82 82"><defs><mask id="master_svg0_649_231026" style="mask-type:alpha" maskUnits="objectBoundingBox"><g><path d="M0,0L69.199997,0C73.680428,0,75.971283,0.0090700388,77.67646,0.89294559C79.144173,1.6537329,80.346268,2.8558278,81.107056,4.3235397C81.990929,6.0287137,82,8.3195744,82,12.800002L82,82L0,0Z" fill-rule="evenodd" fill="#FFFFFF" fill-opacity="1"/></g></mask><clipPath id="master_svg1_649_231027"><rect x="5" y="0" width="77" height="77" rx="0"/></clipPath></defs><g mask="url(#master_svg0_649_231026)"><g style="opacity:0.5;"><path d="M0,0L69.199997,0C73.680428,0,75.971283,0.0090700388,77.67646,0.89294559C79.144173,1.6537329,80.346268,2.8558278,81.107056,4.3235397C81.990929,6.0287137,82,8.3195744,82,12.800002L82,82L0,0Z" fill-rule="evenodd" fill="#FFFFFF" fill-opacity="1"/></g><g clip-path="url(#master_svg1_649_231027)"><g><path d="M24.25,26.25L24.25,19.25L31.25,19.25L31.25,26.25L24.25,26.25ZM45.249998000000005,40.249998000000005L45.249998000000005,47.25L52.25,47.25L52.25,40.249998000000005L45.249998000000005,40.249998000000005ZM45.249998000000005,68.25L52.25,68.25L52.25,61.249996L45.249998000000005,61.249996L45.249998000000005,68.25ZM59.25,47.25L52.25,47.25L52.25,61.249996L59.250004,61.25L59.25,47.25ZM66.24999600000001,61.25L59.250004,61.25L59.249992,68.25L73.24999600000001,68.25L73.24999600000001,54.25L66.24999600000001,54.25L66.24999600000001,61.25ZM66.24999600000001,47.25L73.25,47.25L73.25,40.249998000000005L66.24999600000001,40.249998000000005L66.24999600000001,47.25ZM34.749998000000005,8.75L41.750001999999995,8.75L41.750001999999995,36.750001999999995L13.75,36.750001999999995L13.75,8.75L34.749998000000005,8.75ZM34.749998000000005,15.750000499999999L20.7500005,15.750000499999999L20.7500005,29.749998L34.749998000000005,29.749998L34.749998000000005,15.750000499999999ZM31.249998,57.75L31.249998,50.749996L24.249997999999998,50.749996L24.249997999999998,57.75L31.249998,57.75ZM34.749998000000005,40.249998000000005L41.750001999999995,40.249998000000005L41.750001999999995,68.25L13.75,68.25L13.75,40.249998000000005L34.749998000000005,40.249998000000005ZM34.749998000000005,47.25L20.7500005,47.25L20.7500005,61.25L34.749998000000005,61.25L34.749998000000005,47.25ZM62.75,26.25L62.75,19.25L55.749996,19.25L55.749996,26.25L62.75,26.25ZM73.25,8.75L73.25,36.750001999999995L45.249998000000005,36.750001999999995L45.249998000000005,8.75L73.25,8.75ZM66.24999600000001,15.750000499999999L52.249996,15.750000499999999L52.249996,29.749998L66.24999600000001,29.749998L66.24999600000001,15.750000499999999Z" fill="#A8ABB0" fill-opacity="1" style="mix-blend-mode:passthrough"/></g></g></g></svg>